<svg xmlns="http://www.w3.org/2000/svg" width="26.061" height="29.671" viewBox="0 0 26.061 29.671">
  <g id="Group_14" data-name="Group 14" transform="translate(-1927.372 -1117.998)">
    <g id="Path_4" data-name="Path 4" transform="translate(1929 1130.617)" fill="none">
      <path d="M-.072-.15c4.9-4.3,18.019-4.3,22.935,0s-3.274,17.2-3.274,17.2H3.266S-4.971,4.15-.072-.15Z" stroke="none"/>
      <path d="M 11.38894367218018 -1.374995231628418 C 7.050393104553223 -1.374995231628418 3.164274215698242 -0.3295955657958984 1.247102737426758 1.353264808654785 C 1.010513305664063 1.560924530029297 0.2905635833740234 2.192874908447266 0.3795833587646484 4.239804267883301 C 0.4396724700927734 5.621724605560303 0.8528823852539063 7.322924613952637 1.60771369934082 9.296164512634277 C 2.518760681152344 11.67776012420654 3.710231781005859 13.86611843109131 4.397415161132813 15.05108451843262 L 18.4535026550293 15.05108451843262 C 19.13668251037598 13.8649845123291 20.317626953125 11.67987728118896 21.21826362609863 9.302044868469238 C 21.96543312072754 7.329414844512939 22.37209320068359 5.628714561462402 22.42695426940918 4.247204780578613 C 22.50834274291992 2.197904586791992 21.78354263305664 1.563784599304199 21.54536247253418 1.355414390563965 C 19.62035369873047 -0.3287649154663086 15.7286434173584 -1.374995231628418 11.38894367218018 -1.374995231628418 M 11.38894462585449 -3.374998092651367 C 15.89580821990967 -3.374998092651367 20.40469360351563 -2.29994010925293 22.86228370666504 -0.1498250961303711 C 27.77746391296387 4.150394439697266 19.58846282958984 17.05108451843262 19.58846282958984 17.05108451843262 L 3.266233444213867 17.05108451843262 C 3.266233444213867 17.05108451843262 -4.971286773681641 4.150394439697266 -0.07226753234863281 -0.1498250961303711 C 2.377239227294922 -2.29994010925293 6.882081031799316 -3.374998092651367 11.38894462585449 -3.374998092651367 Z" stroke="none" fill="#fff"/>
    </g>
    <path id="Path_5" data-name="Path 5" d="M-919.388,1119c8.16.175,8.919,10.877,8.919,10.877a32.07,32.07,0,0,0-8.919-1.77,25.526,25.526,0,0,0-8.356,1.432S-927.548,1118.825-919.388,1119Z" transform="translate(2859.783 0)" fill="none" stroke="#fff" stroke-width="2"/>
  </g>
</svg>
